{
    "asset" : {
        "generator" : "Khronos glTF Blender I/O v1.7.33",
        "version" : "2.0"
    },
    "scene" : 0,
    "scenes" : [
        {
            "name" : "Scene",
            "nodes" : [
                2
            ]
        }
    ],
    "nodes" : [
        {
            "mesh" : 0,
            "name" : "ChestBase.071",
            "translation" : [
                0,
                0.21106889843940735,
                0
            ]
        },
        {
            "mesh" : 1,
            "name" : "ChestTop.071",
            "translation" : [
                0,
                1.1672743558883667,
                -0.5741279125213623
            ]
        },
        {
            "children" : [
                0,
                1
            ],
            "name" : "Lowpol Cartoon Chest"
        }
    ],
    "materials" : [
        {
            "doubleSided" : true,
            "name" : "Chest",
            "pbrMetallicRoughness" : {
                "baseColorTexture" : {
                    "index" : 0
                },
                "metallicFactor" : 0.8227272629737854,
                "roughnessFactor" : 0.5061132311820984
            }
        }
    ],
    "meshes" : [
        {
            "name" : "Cube.843",
            "primitives" : [
                {
                    "attributes" : {
                        "POSITION" : 0,
                        "NORMAL" : 1,
                        "TEXCOORD_0" : 2
                    },
                    "indices" : 3,
                    "material" : 0
                }
            ]
        },
        {
            "name" : "Cube.844",
            "primitives" : [
                {
                    "attributes" : {
                        "POSITION" : 4,
                        "NORMAL" : 5,
                        "TEXCOORD_0" : 6
                    },
                    "indices" : 7,
                    "material" : 0
                }
            ]
        }
    ],
    "textures" : [
        {
            "sampler" : 0,
            "source" : 0
        }
    ],
    "images" : [
        {
            "bufferView" : 4,
            "mimeType" : "image/png",
            "name" : "H:\\f4d\\auto\\goods\\AssetStore\\ICONS\\Chests\\LOWPOL\\Colors"
        }
    ],
    "accessors" : [
        {
            "bufferView" : 0,
            "componentType" : 5126,
            "count" : 2076,
            "max" : [
                1.6718918085098267,
                1.082632064819336,
                0.7838320732116699
            ],
            "min" : [
                -1.6718918085098267,
                -0.2135905921459198,
                -0.7838321328163147
            ],
            "type" : "VEC3"
        },
        {
            "bufferView" : 1,
            "componentType" : 5126,
            "count" : 2076,
            "type" : "VEC3"
        },
        {
            "bufferView" : 2,
            "componentType" : 5126,
            "count" : 2076,
            "type" : "VEC2"
        },
        {
            "bufferView" : 3,
            "componentType" : 5123,
            "count" : 3774,
            "type" : "SCALAR"
        },
        {
            "bufferView" : 5,
            "componentType" : 5126,
            "count" : 1539,
            "max" : [
                1.203789234161377,
                1.0182913541793823,
                1.3117790222167969
            ],
            "min" : [
                -1.2037893533706665,
                -0.3180280923843384,
                -0.045172691345214844
            ],
            "type" : "VEC3"
        },
        {
            "bufferView" : 6,
            "componentType" : 5126,
            "count" : 1539,
            "type" : "VEC3"
        },
        {
            "bufferView" : 7,
            "componentType" : 5126,
            "count" : 1539,
            "type" : "VEC2"
        },
        {
            "bufferView" : 8,
            "componentType" : 5123,
            "count" : 3420,
            "type" : "SCALAR"
        }
    ],
    "bufferViews" : [
        {
            "buffer" : 0,
            "byteLength" : 24912,
            "byteOffset" : 0
        },
        {
            "buffer" : 0,
            "byteLength" : 24912,
            "byteOffset" : 24912
        },
        {
            "buffer" : 0,
            "byteLength" : 16608,
            "byteOffset" : 49824
        },
        {
            "buffer" : 0,
            "byteLength" : 7548,
            "byteOffset" : 66432
        },
        {
            "buffer" : 0,
            "byteLength" : 45798,
            "byteOffset" : 73980
        },
        {
            "buffer" : 0,
            "byteLength" : 18468,
            "byteOffset" : 119780
        },
        {
            "buffer" : 0,
            "byteLength" : 18468,
            "byteOffset" : 138248
        },
        {
            "buffer" : 0,
            "byteLength" : 12312,
            "byteOffset" : 156716
        },
        {
            "buffer" : 0,
            "byteLength" : 6840,
            "byteOffset" : 169028
        }
    ],
    "samplers" : [
        {
            "magFilter" : 9729,
            "minFilter" : 9987
        }
    ],
    "buffers" : [
        {
            "byteLength" : 175868,
            "uri" : "data:application/octet-stream;base64,"
        }
    ]
}
